<svg width="25" height="23" viewBox="0 0 25 23" fill="none" xmlns="http://www.w3.org/2000/svg">
<path d="M13.2684 22.0443L22.9482 12.2731C24.2039 10.9914 24.9051 9.26712 24.9001 7.47277C24.8952 5.67843 24.1846 3.95804 22.9218 2.68325C22.3024 2.05135 21.5634 1.54895 20.748 1.20527C19.9326 0.861581 19.057 0.683476 18.1721 0.681313C17.2872 0.679149 16.4107 0.85297 15.5936 1.19266C14.7765 1.53236 14.0351 2.03114 13.4126 2.66L12.4888 3.59465L11.551 2.64915C10.9324 2.01809 10.1945 1.51632 9.38021 1.17302C8.56592 0.829723 7.6915 0.651744 6.8078 0.649437C5.9241 0.647129 5.04876 0.820538 4.23269 1.15958C3.41662 1.49862 2.67609 1.99653 2.05418 2.62435C-0.562216 5.2671 -0.549816 9.56215 2.07898 12.2173L11.8083 22.0443C12.2113 22.452 12.8654 22.452 13.2684 22.0443ZM14.5146 3.74965C14.9931 3.26664 15.563 2.88368 16.191 2.62308C16.8189 2.36249 17.4925 2.22947 18.1724 2.23178C18.8523 2.23409 19.525 2.37168 20.1511 2.63653C20.7773 2.90138 21.3446 3.2882 21.8198 3.77445C22.7951 4.75923 23.3443 6.08788 23.3489 7.47387C23.3535 8.85987 22.8133 10.1922 21.8446 11.1834V11.1866L12.5384 20.5795L3.17948 11.1261C1.14433 9.0708 1.14278 5.7476 3.15623 3.714C3.63413 3.23188 4.20316 2.84964 4.83019 2.58955C5.45723 2.32945 6.12974 2.1967 6.80858 2.199C7.48741 2.20131 8.15901 2.33864 8.78426 2.60299C9.40951 2.86735 9.97593 3.25344 10.4505 3.7388L11.9385 5.2423C12.0106 5.31517 12.0964 5.37303 12.191 5.41251C12.2856 5.452 12.3871 5.47233 12.4896 5.47233C12.5921 5.47233 12.6935 5.452 12.7881 5.41251C12.8827 5.37303 12.9685 5.31517 13.0406 5.2423L14.5146 3.74965Z" fill="#CECECE"/>
</svg>
