<svg xmlns="http://www.w3.org/2000/svg" baseProfile="basic" width="647" height="545" viewBox="-0.002 0 647 545" xml:space="preserve"><path fill="#FFF" d="M271.328 20.826c38.67-16.36 81.229-23.05 123.08-20.18 40.97 3.08 81.25 15.48 116.641 36.41 31.72 18.69 59.579 43.91 81.311 73.64 25.37 34.62 42.301 75.41 48.699 117.87 4.91 33.66 3.91 68.34-4.141 101.438 5.24 10.25 7.86 22.052 6.091 33.512-2.021 17.25-13.08 33.028-28.479 41.021-3.512 2.41-8.711 2.45-11.102 6.28-28.051 44.938-69.511 81.479-117.859 103.21-10.09 4.71-20.601 8.439-31.149 11.96l-2.188.479c-50.819 15.601-106.29 15.05-157.041-.62-37.989-12.029-73.38-32.33-102.6-59.46-27.979-25.79-50.439-57.54-65.33-92.569-6.64-15.37-11.45-31.45-15.37-47.69-7-4.278-15.439-5.5-23.5-4.568-16.649 1.721-32.399 7.738-48.51 11.858 11.48-8.46 24-15.5 36.98-21.37-20.62.271-40.84 5.12-60.84 9.762-5.36 1.33-10.721 2.699-16.021 4.229 20.59-22.029 47.68-36.938 75.61-47.6-9.551-1.221-19.23-2.353-28.351-5.621-8.55-2.86-16.52-7.29-23.68-12.75 6.9-.21 13.83.229 20.71-.57 21.24.15 43.54-1 62.48-11.67 3.479-46.05 19.319-91.1 45.319-129.25 29.2-43.171 71.12-77.671 119.24-97.751z"/><path fill="#060305" d="M345.297 10.256c34.07-3.5 68.9-1.19 101.82 8.56 69.63 19.84 129.75 70.28 161.51 135.32 15.7 31.52 24.841 66.329 26.45 101.51-.229 7.358 1.101 14.7.13 22.04-.22 14.488-2.17 28.881-4.84 43.108a118.064 118.064 0 0 0-5.939-5.238c2.931-18.78 5.062-37.852 3.841-56.87-.262-4.972-.421-9.94-.91-14.892-3.979-39.479-17.311-78.01-38.891-111.33-21.711-33.829-51.561-62.399-86.301-82.609-36-20.96-77.239-33.09-118.92-34.08-5.01-.74-10.09-.2-15.13-.37l-.67.49c-43.75.62-87.051 14.05-124.351 36.74-36.56 22.38-67.37 54.1-88.55 91.38-16.34 28.47-26.899 60.199-31.109 92.739-1.971 2.4-4.891 3.74-7.49 5.33 4.75-48.488 24.04-95.319 54.14-133.58 31.42-40.09 74.79-70.75 123.17-86.729 16.901-5.589 34.37-9.429 52.04-11.519z"/><path fill="#030203" d="M356.777 31.216c5.171-2.61 12.369-3 16.671 1.43 2.938 2.65 3.409 6.82 4.39 10.44-2.81.24-5.63.4-8.439.37-.959-1.78-1-4.61-3.219-5.35-1.791-.46-3.631.05-5.41.25-.142 1.5-.221 3-.26 4.51 5.078 1.87 10.778 2.93 14.76 6.9 4.449 4.2 4.101 11.38 1.438 16.46-3.97 7.46-15.101 8.489-21.3 3.35-3.311-3.13-3.939-7.81-4.62-12.07 3.021 0 6.04 0 9.062-.03.66 1.83.92 3.89 2.17 5.47 1.229 1.85 3.608 1.13 5.479 1.23 1.318-2.32 2.061-5.061 1.189-7.67-2.909-2.74-7.239-2.7-10.67-4.49-7.92-3.46-8.761-16.47-1.241-20.8z"/><path fill="#040205" d="M396.438 31.646c4.949-1 11.129-.85 14.779 3.21 3.01 3.06 3.391 7.62 3.35 11.68a80.974 80.974 0 0 1-7.789-.61c-.85-1.86-1.359-3.84-2.131-5.73-1.709-.25-3.75-1.65-5.311-.37-2.021.93-2.279 4.08-.119 5 4.239 2.25 9.061 3.99 12.021 8 3.76 4.66 2.648 11.64-.53 16.3-5.108 7.23-17.55 6.851-22.42-.399-2.261-3.351-2.101-7.59-2.239-11.44 2.971.36 5.939.77 8.93.93.53 2.29.301 5.01 2.08 6.79 1.021.601 2.2.851 3.33 1.181.58-.32 1.721-.95 2.291-1.271 1.229-2.18 1.488-4.66 1.039-7.1-4.011-2.54-8.931-3.78-12.271-7.26-4.7-5.861-2.65-16.591 4.99-18.911zM316.248 37.856c3.681-2.91 8.75-3.62 13.229-2.46 5.24 1.86 8.75 6.98 9.479 12.39-2.938.75-5.892 1.48-8.88 1.92-.46-1.45-.91-2.9-1.359-4.34-1.58-.36-3.15-.71-4.729-1.06-1.57 1.09-3.58 1.97-4 4.05.92 5.55 2.1 11.06 3.399 16.52.71 3.7 5.919 4.891 8.399 2.21 1.681-1.46 1.05-3.939 1.391-5.88 2.71-.85 5.46-1.7 8.29-2.08 1.909 2.62 1.75 6.22.979 9.23-1.959 5.27-7.43 8.14-12.579 9.46-6.801.95-14.479-3.67-15.54-10.74-1.2-6.18-2.471-12.35-3.521-18.55-.858-4.36 2.161-8.21 5.442-10.67zM456.238 58.906c2.22-4.65 6.449-9.25 12.028-9.01 7.74.05 16.5 6.42 15.2 14.92-1.12 5.85-4.511 10.91-6.62 16.42-2.398 5-4.148 10.34-7.029 15.1-2.729-.71-5.199-2.109-7.761-3.239.642-3.82 2.75-7.12 4.189-10.65 2.359-5.59 5.05-11.04 7.28-16.68.92-1.88-.271-3.69-.87-5.44-2.38-.35-5.682-1.16-6.96 1.58-4.051 8.89-7.881 17.88-11.939 26.76-3.311-.33-6.271-1.95-9.091-3.58 3.792-8.752 7.762-17.431 11.573-26.181z"/><path fill="#050205" d="M243.658 68.526c2.6-1.561 5.17-3.2 7.899-4.53 6.11 9.66 11.38 19.84 17.4 29.561 4.52-2.551 8.91-5.311 13.52-7.66 1.54 2.54 3 5.12 4.351 7.76-7.261 3.91-14.28 8.25-21.49 12.271-7.25-12.463-14.31-25.022-21.68-37.402z"/><path fill="#040205" d="M495.248 71.616c6.49-4.32 16.431-1.81 20.069 5.08 1.091 1.82 1.609 3.9 2.311 5.9-.2 2.81-.58 5.77-2.34 8.09-3.79 5.24-7.312 10.68-11.28 15.779-2.909 3.641-8.05 4.41-12.38 3.421-8.08-1.53-14.05-10.851-10.771-18.681 2.079-3.76 4.858-7.09 7.188-10.7 2.283-3.049 4.092-6.579 7.203-8.889z"/><path fill="#FEFEFE" d="M497.438 81.715c1.079-1.77 2.96-2.689 4.801-3.5 1.521.671 3.04 1.36 4.54 2.101.81 2.26 1.84 4.939.238 7.13-2.369 3.64-4.88 7.19-7.438 10.69-2.37 2.89-6.681 3.04-9.521.77-.398-1.12-.8-2.22-1.199-3.33 1.889-5.16 5.579-9.34 8.579-13.861z"/><path fill="#040204" d="M219.397 86.835c4.96-5.17 14.41-6.29 19.591-.84 6.869 7.45 13.949 14.73 20.64 22.37-2.18 2.01-4.29 4.1-6.47 6.1-7.15-6.8-13.29-14.579-20.4-21.409-1.49-1.591-3.8-.92-5.71-.98-1.23 1.89-2.59 4.561-.83 6.59 6.33 7.17 12.97 14.08 19.58 21-.03.61-.05 1.23-.07 1.851-2.25 1.8-4.279 3.85-6.41 5.79-5.96-6.601-12.22-12.931-18.109-19.591-1.65-1.68-3.45-4.029-6.13-3.27-2.75.77-4.44 4.5-2.12 6.67 6.57 7.36 13.39 14.5 20.18 21.67-2.01 2.44-4.43 4.48-6.84 6.521-6.81-7.07-13.39-14.37-20.16-21.471-3.939-3.76-4.63-9.92-2.479-14.79 1.739-5.1 6.989-8.029 12.189-8.27.748-2.811 1.458-5.78 3.548-7.941z"/><path d="M299.047 101.326c35.381-16.24 76-20.57 114.051-12.45 36.75 7.681 70.841 27.141 96.439 54.551 13.99 15.069 25.511 32.399 33.938 51.159 5.7 13.38 10.341 27.312 12.66 41.71-19.13-3.75-38.021-8.84-56.391-15.39-8.72-3.15-17.359-6.63-25.51-11.07-1.29-.67-2.44-1.55-3.33-2.68-3.69-4.38-7.38-8.74-11.08-13.1-.931-1.71-2.931-1.062-4.479-1.142a87.814 87.814 0 0 1-.83-5.35c-3.63-3.7-3.551-8.96-3.721-13.79-1.5-14.65-.779-29.71-5.1-43.96-5.67-12.62-17.29-22.83-31.12-25.23-9.771-1.529-19.88-.77-29.38 1.95-17.66 4.95-33.801 14.061-49.11 23.97-13.829 9.091-26.97 19.2-39.689 29.771-15.729.87-30.27 7.54-44.09 14.59-9.06 4.41-18.1 9.29-28.05 11.37-4.95.63-9.93 1.01-14.8 2.189 18.612-38.228 50.843-69.589 89.592-87.098z"/><path fill="#040204" d="M527.228 92.696c1.688-1.7 3.159-4.15 5.891-3.98 4.41 5.37 11.489 8.9 13.359 16.03.641 3.891-.211 8.24-3 11.15-4.08 4.59-8.262 9.1-12.591 13.46-3.46 3.64-9.12 3.939-13.641 2.49-5.689-3.07-10.05-8.021-14.75-12.37 8.011-9.141 16.631-17.721 24.732-26.78z"/><path fill="#FEFFFE" d="M532.427 101.526c2.562 1.54 4.659 3.84 4.812 6.99-4.54 4.91-9.07 9.84-13.7 14.67-1.431-.03-2.87-.05-4.29-.08-1.21-1.18-2.431-2.36-3.641-3.521a817.733 817.733 0 0 0 16.819-18.059z"/><path d="M360.396 134.686c13.932-8.01 28.75-15.58 44.932-17.431 10.26-1.38 21.819 1.65 28.229 10.25 5.229 5.721 5.812 13.811 6.521 21.15.92 7.37.51 14.84 1.648 22.2-2.869.55-5.71 1.37-8.63 1.6-1.5-.71-2.989-1.399-4.311-2.39-.51-2-.82-4.04-1.13-6.08-11.79 2.19-24.221 4.63-33.87 12.229-4.851 3.7-7.722 9.421-8.722 15.36-.01 1.79-.049 3.59.08 5.4 1.631 1.358 3.972 1 5.939 1.488-2.75 5.052-5.21 10.342-5.96 16.102v4c4.61-.72 8.53-3.36 12.841-4.95-.189 1.03-.561 3.09-.74 4.12-.09 1.4-.17 2.8-.238 4.2a41.698 41.698 0 0 0 3.25 6.38c6.209-1.352 11.578-4.94 17.51-7.062-.17.86-.51 2.58-.682 3.44.24.68.711 2.03.939 2.7a52.789 52.789 0 0 0 17.812-8.08c7.011-4.5 13.819-10.41 22.351-11.521 4.761 3 6.979 9.2 12.011 12.092 8.181 4.938 17.062 8.578 25.96 12 18.279 6.79 37.09 12.148 56.17 16.158 9.92 2.17 20.029 3.65 29.649 6.99 5.38 1.95 10.801 5.24 13.181 10.69 4.479 10.71 4.42 23.38-.858 33.79-4.729 8.721-13.172 15.84-23.052 17.738-39.561 9.15-79.761 15.302-119.979 20.65-11.95 1.319-23.87 2.76-35.852 3.771-27.619 2.471-55.351 3.859-83.101 3.521-9.09.13-18.26-.08-27.14-2.189-3.479-1.319-7.051-2.801-9.561-5.659-3.439-3.341-4.399-8.2-5.28-12.71-1.47-8.279-3.439-16.521-3.72-24.961-.31-7.341 2.181-14.352 3.57-21.471 4.31-21.479 7.689-43.17 13.18-64.41.729-2.6.319-5.35 1.04-7.948 2.891-12.08 6.3-24.021 9.42-36.041.37-1.03.51-2.271 1.38-3 14.395-11.616 29.274-22.706 45.213-32.116z"/><path fill="#040204" d="M526.217 143.136c11.67-8.44 23.3-16.931 34.989-25.341 4.17 6.011 8.58 11.851 12.82 17.811-2.41 1.7-4.682 3.62-7.29 5-2.86-3.24-5.25-6.87-7.75-10.391-1.86 1.301-3.74 2.57-5.62 3.83.109 2.92 2.521 4.91 3.898 7.311-2.21 1.649-4.449 3.28-6.75 4.81-1.528-2.13-3-4.3-4.72-6.27-1.99 1.16-3.851 2.51-5.729 3.819l-1.319 1.641c2.54 3.43 5.08 6.859 7.471 10.41-2.37 1.8-4.801 3.51-7.311 5.109-4.149-5.969-8.839-11.569-12.689-17.739z"/><path fill="#030205" d="M185.187 122.556c.94-1.271 1.71-2.73 3.021-3.66 2.609 1.16 4.689 3.22 7 4.88-1.82 2.53-3.69 5.01-5.37 7.65 9.229 6.609 18.34 13.38 27.59 19.949-1.37 2.601-3.18 4.92-4.95 7.25-9.41-6.66-18.63-13.58-28.05-20.22-1.6 2.37-3.12 4.81-4.96 7-2.93-.15-4.97-3.03-7.42-4.42 3.99-6.409 8.879-12.199 13.139-18.429z"/><path fill="#030104" d="M161.748 160.056c1.57-3.051 3.15-6.101 5.06-8.95 12.351 6.72 25.021 12.939 37.17 20.01.15 3.38-2.71 6.4-4.3 9.311-5.11-2.44-9.79-5.801-15.13-7.7-.79 1.739-1.6 3.489-2.39 5.25 4.819 2.88 10.159 4.88 14.729 8.2-1.47 2.979-3.08 5.891-4.64 8.819-12.67-6.37-25.09-13.25-37.63-19.84-.47-1.9 1.17-3.65 1.84-5.36.89-1.25 1.25-3.229 2.82-3.779 5.08 2.27 9.779 5.33 14.859 7.63.94-1.75 1.9-3.49 2.92-5.2-5.079-2.841-10.278-5.471-15.308-8.391z"/><path fill="#090307" d="M543.368 164.816c1.13-3.08 4.949-3.271 7.38-1.66 1.061 2.18 1.149 4.49-.061 6.63-1.221.48-2.431.96-3.642 1.46-2.228-1.25-5.517-3.5-3.677-6.43z"/><path fill="#070406" d="M395.857 184.926c9.181-7.9 20.74-11.9 32.108-15.461l.82.601c1.319.99 2.811 1.68 4.311 2.39-12.631 4.99-24.801 11.07-37.261 16.45-.019-1.34-.007-2.651.022-3.98z"/><path fill="#030204" d="M553.967 178.476c1.67-3.94 5.46-6.34 9.229-7.99 1.29 2.97 2.648 5.91 3.92 8.9-2.59 1.39-5.011 3.439-4.45 6.68 1.5.38 3.07 1.7 4.66.89 9.47-3.81 18.521-8.58 27.88-12.64 1.351 3.14 2.88 6.189 4.141 9.37-6.811 3.29-13.739 6.34-20.551 9.63-4.699 1.89-9.58 4.7-14.819 3.71-8.039-1.34-13.529-11.09-10.01-18.55z"/><path d="M232.357 199.306c23.921-4.82 43.23-22.87 67.801-25.4-2.841 11.61-6.28 23.07-9.07 34.7-.84 3.64-.7 7.45-1.83 11.03-6.39 24.81-9.6 50.3-15.55 75.209-1.61 7.479-.71 15.21.71 22.648.71 4.971 1.76 9.93 3.7 14.59-8.19.352-16.23 3.142-23.2 7.392-7.95 4.681-13.92 12.898-23.51 14.438-12.011.87-22.33-6.85-34.08-7.739-4.261-.021-8.23 2.109-12.521 1.939.78-.58 1.561-1.141 2.351-1.7 6.01-3.148 11.989-6.79 18.84-7.771 8.359-.949 16.77-1.54 25.069-2.92 4.54-.819 8.721-2.96 12.181-5.989 4.56-3.841 12.05-4.67 14.13-10.99.439-4.5-.5-11.76-6.13-12.358-4.8.688-8.75 3.898-12.45 6.811-6.16 4.85-11.72 10.5-18.37 14.71-2.99 2.062-6.77 1.46-10.189 1.51-5.061-.08-9.87-1.989-14.891-2.37-7.59.802-14.84 3.392-22.03 5.83-5.51 1.7-11.14 3.562-16.979 3.271-7.93-.229-15.49-3.119-22.5-6.649 4.82-.16 9.69.271 14.48-.521 16.21-2.329 30.88-10.189 46.67-14.079 5.04-1.48 10.47.04 15.43-1.892 7.45-2.58 14.47-8.811 15.49-16.971.51-3.16-.74-6.1-2.21-8.79-4.48-4.069-10.71-1.608-15.311.892-13.28 7.521-24.189 18.521-37.37 26.188-3.569 2.03-7.649 3.229-11.779 3.062-8.83-.239-17.29-3.052-25.971-4.399-8.01-1.49-16.18-1.2-24.279-.88 15.25-7.381 32.64-6.61 48.97-9.602 5.98-1.148 12.5-1.938 17.39-5.869 1.94-1.4 2.01-3.979 2.34-6.119-2.05-5.75-6.8-11.23-13.319-11.36-10.11.312-18.51 6.71-26.64 12-5.62 3.63-11.301 8.87-18.511 8.021-7.39-1-14.609-3.438-22.14-3.341l-.65-.43c-7.25-.13-14.489.641-21.609 1.97 6-3.75 12.06-7.658 18.939-9.58 8.13-2.369 16.74-1.42 25-2.92 13.771-3.898 22.65-16.188 34.96-22.738 3.681-1.79 7.86-3.28 11.99-2.37 10.39 1.68 16.56 11.818 26.51 14.549 8.88 2.181 18.17-1.189 25.35-6.399 3.9-2.71 7.091-6.6 8.15-11.31-1.79-4.98-8.01-5.95-12.62-5.521-7.729.69-12.27 7.771-18.79 11.04-9.72-1.068-16.819-8.47-25.739-11.608-5.74-1.45-12.4-.75-17.051 3.188-7.409 5.96-15.18 11.94-24.47 14.63-10.79 3.5-22.439 1.762-32.979-1.778 11.02-1.12 22.2-3.472 31.75-9.341 11.71-6.979 20.42-19.381 34.46-22.039 7.81-2.03 15.529 1.47 22.239 5.17 4.24 2.119 8.851 4.63 13.75 3.698 7.391-1.68 12.75-7.39 18.98-11.27 2.95-1.91 6.939-2.08 9.18-5.05 1.88-1.562 1.25-4.13 1.41-6.261-1.92-2.131-4.53-3.811-7.521-3.229-9.72.84-15.47 10.311-24.52 12.89-3.44.74-6.71-.84-9.92-1.84-5.33-1.85-10.91-3.22-16.6-2.96-5.21-.26-10.16 1.54-15.221 2.431 2.381-2.109 4.73-4.369 7.721-5.601 7.1-3.22 15.14-1.84 22.59-3.49 6.79-1.67 11.989-6.59 17.8-10.159 6.07-4.131 12.92-7.149 20.149-8.54 3.95-.965 8.07-.744 12.04-1.664z"/><path fill="#110506" d="M402.477 198.946c8.41-5.98 16.5-12.79 26.149-16.72-2.18 2.47-4.64 4.661-7.239 6.649-9.92 7.682-19.979 15.17-30.279 22.33 2.059-5.37 7.22-8.599 11.369-12.259z"/><path fill="#020203" d="M437.238 191.816c2.858-1 5.949-1.28 8.92-.58.229 5.41-4.96 8.57-8.41 11.9-10.779 8.6-23.33 14.618-36.04 19.778.75-5.29 2.551-10.33 4.438-15.29 10-5.918 20.001-12.119 31.092-15.808z"/><path fill="#040104" d="M584.988 205.516c2.188-4.062 6.979-5.65 11.29-6.13 8.34.118 13.06 9.96 11.14 17.229-1.3 4.97-6.13 7.49-10.529 9.24-.761-2.71-1.449-5.44-2.148-8.16 1.51-1.271 4.35-1.82 4.34-4.21.05-1.44-.25-2.85-.399-4.271a55.183 55.183 0 0 0-4.25-1.13l-1.351 2.341c-.21 5.899-.59 12.671-5.319 16.891-3.461 3.52-8.851 3.43-13.381 2.76-7.88-2.1-11.51-11.91-8.659-19.109 2.029-4.391 6.689-6.461 10.979-8.029.891 2.91 1.63 5.858 2.33 8.818-2.25 1.4-6.189 2.472-5.562 5.892-.369 1.8 1.421 2.64 2.449 3.76 2.271-.24 5.222.11 6.591-2.189 1.179-4.493.458-9.424 2.479-13.703z"/><path fill="#FEFEFD" d="M335.998 249.585c2.682-8.818 11.352-13.979 20.102-15.06 6.979-.42 14.561.67 20.08 5.31 3.789 2.91 5.238 7.67 6.549 12.062 2.142 0 4.291.05 6.439.2.359-5.65 5.2-9.92 10.221-11.762 3.109-1.27 6.069.5 8.789 1.83 2.313-1.12 4.36-3.25 7.15-2.858 2.391-.271 4.79 2.028 7.061.68 3.369-1.87 7.729-2.45 11.102-.26 3.528 1.648 4.729 5.66 5.648 9.13 7.08-2.47 15.569-2.99 21.819 1.85 1.83-.81 3.641-1.67 5.45-2.54 1.311-6.05 7.96-10.02 13.898-8.46 6.569 1.41 10.819 9.7 6.551 15.45 1.021 3.5 1.301 7.24-.04 10.71 2.641 2.62 5.511 5.79 4.891 9.83.49 5.47-3.561 9.82-7.739 12.699 2.681 4.08 1.029 8.971 2.579 13.341 1.011 4.2.23 9.05-3.148 12.021-4.642 4.961-12 4.229-18.131 5.352a203.841 203.841 0 0 0-3.358-2.131c-6.24 2.938-13.95 3.479-19.69-.892-2.26 2.142-4.979 3.682-7.96 4.563-3.05 4.188-7.068 8.38-12.39 9.31-5.142.182-8.722-4.449-9.642-9.108-5.16 1.62-10.479.891-15.5-.841-4.391 3.521-10.488 3.939-15.699 2.189-2.229 4.35-5.369 8.34-9.852 10.529-9.56 4.779-22.699 3.181-29.56-5.489-5.729-7.07-4.79-18.13 1.96-24.221-1-2.189-1.771-4.471-2.189-6.829-1.351-.4-2.688-.812-4.021-1.2-1.28.67-2.562 1.34-3.83 2.021-6.771.021-13.62-.67-20.25 1.091-1.87-1.341-4.101-2.359-5.33-4.38-1.16-2.07-.92-4.5-.979-6.771-8.66-2.54-11.471-14.64-5.46-21.06 3.721-4.011 9.489-4.671 14.659-4.432 3.271-1.59 7.141-3.72 10.64-1.29 4.392 1.921 3.771 7.37 6.021 10.852 3.342 2.229 7.08-.91 10.682-.92-7.253-3.795-9.273-13.065-7.523-20.516z"/><path fill="#060305" d="M352.377 242.076c5.859-1.74 12.592-1.61 17.939 1.57 5.649 3.14 7.479 11.47 3.609 16.67-1.609 2.14-4.289 2.97-6.641 3.979 2.87 7.57 7.3 16.15 15.641 18.592 4.819 1.311 8.602-3.449 13.279-3 2.609.068 2.41 3.329 2.63 5.188-4.329 6.659-13.729 7.819-20.489 4.489-6.779-3.469-11.148-10.279-13.891-17.169-1.09-2.75-1.971-5.562-2.898-8.36-.432.062-1.312.17-1.74.23.101 1.66.211 3.33.33 5 1.061.479 2.119.96 3.188 1.448-.271 1.23-.56 2.473-.869 3.7-1.938 3.392-4.881 6.12-8.301 7.979-.979-.931-2.21-1.642-2.851-2.852.811-2.277 2.609-4.197 2.688-6.72.142-4.34-.47-8.67-.39-13.01.109-2.58-1.729-4.58-3.09-6.55 2.119-2.86 5.729-2.36 8.858-2.29.312.54.63 1.08.96 1.63-.431 2.29-.619 4.608-.699 6.938 2.851-.01 6.33.36 8.188-2.33 2.92-3.26.21-8.318-3.56-9.448-5.801-1.972-14.172-.53-16.49 5.89.97 3.63 4.55 6.24 4.311 10.19-1.54.579-3.17 1.93-4.859 1.01-4.729-2.44-6.34-8.602-4.811-13.43 1.199-4.705 5.449-8.045 9.958-9.344z"/><path fill="#0B0506" d="M426.057 245.266c1.54-.562 3.2-.19 4.801-.15 1.351 2.42 2.239 6.13-.29 8.09-2 .771-4.949.65-5.859-1.64-1.461-2.08-.142-4.66 1.348-6.3z"/><path fill="#070306" d="M395.768 251.456c1.289-2.75 4.17-4.21 6.818-5.38 3.602 8.21 1.53 17.5 3.16 26.11.891 1.05 1.92 1.99 2.91 2.97.029.539.08 1.63.109 2.17-3.49 1.65-7.439 1.22-11.17.96-.031-.609-.08-1.841-.109-2.45.71-1.09 1.43-2.18 1.979-3.358-.141-5.92-.949-11.812-.841-17.74-.957-1.072-3.446-1.363-2.856-3.282zM409.498 249.696c2.068-1.78 4.182-3.68 6.939-4.25 2.141 4.77 1.75 10.13 2.261 15.23.38 4.5-.94 9.868 2.71 13.35h3.641c.479-.569 1.431-1.699 1.899-2.259.028-3.021.028-6.04-.11-9.052-.89-.22-2.67-.648-3.56-.868.84-3.61 4.06-5.73 7.26-7.052 2.181 5.08 1.148 10.75 2.2 16.07a436.3 436.3 0 0 0 3.239 3.33c-.04.49-.109 1.451-.141 1.931-3.229.603-6.511.87-9.79.91-1.021-.771-2.04-1.511-3.051-2.271-2.449 4.521-8.409 3.141-12.5 2.25.87-2.41 2.88-4.54 2.551-7.262-.199-4.329-.5-8.658-.71-12.988-.149-1.04-.28-2.07-.391-3.102-2.117-.368-2.379-2.187-2.447-3.967z"/><path fill="#090508" d="M473.578 248.106c2.061-3.92 9.45-2.08 8.37 2.67-1.36 2.34-4.12 1.2-6.271 1.33 2.319 3.14 6.779 6.02 5.271 10.53-1.79 4.198-7.03 4.54-10.852 5.8-.199.43-.601 1.29-.801 1.729 4.131 2.12 8.7-1.2 12.852.82 2.021.7 2.771 2.871 3.608 4.64-1.42 6.92-9.188 9.609-15.47 9.13-2.67-.47-6.2-.85-7.59-3.5-1.25-2.42 1.04-5.39 3.63-4.92 2.26 1.58 4.21 3.603 6.71 4.841 2.29-.869 6.43-1.25 5.68-4.671-1.239-1.72-3.55-1.5-5.39-1.35-2.771.22-5.55.22-8.33.159-.72-.719-1.431-1.439-2.141-2.149-.011-.92-.011-1.83-.011-2.729 1.102-1.01 2.21-2.021 3.34-3-1.271-1.45-3.21-2.57-3.55-4.602-.729-2.26.562-4.358 1.409-6.35 3.051-1.66 6.391-2.59 9.82-3.06-.485-1.709-1.895-3.799-.284-5.318z"/><path fill="#070406" d="M446.847 256.375c2.42-1.52 5.619-3.56 8.409-1.68 3.021 2.05 2.602 6.04 2.9 9.21-.13 2.7 2.778 4.021 2.97 6.64-2.51 2.67-5.01 7.182-9.37 5.57.79-5.24 2.21-10.95-.27-15.95-1.53.392-3.03.8-4.552 1.19-.398 2.108-1.148 4.22-.851 6.398.261 2.91 2.971 4.57 4.301 6.979-3.479 1.701-7.358 1.711-11.131 1.5-.39-.479-1.18-1.449-1.569-1.93.961-1 1.932-1.979 2.95-2.921.271-.819.562-1.619.84-2.431-.438-2.16-.641-4.35-.761-6.54l-2.979-.56c.02-1.54.398-3.011.96-4.42 1.71-1.15 3.409-2.32 5.159-3.432 1.079 1.222 1.818 2.65 2.539 4.12.115-.432.346-1.302.455-1.743z"/><path fill="#FCFDF8" d="M468.057 260.496c.761-2.84 4.062-2.648 6.359-2.28a15.867 15.867 0 0 1 1.78 3.632c-1.61.97-3.33 1.71-5.062 2.42-1.207-.992-4.047-1.592-3.077-3.772z"/><path fill="#070409" d="M380.688 259.215c4.391-2.158 10.391-.688 12.688 3.79 2.07 4.512 2.181 10.53-1.569 14.2-2.75 3.04-7.449 2.7-11.068 1.82-7.621-3.339-7.721-16.449-.051-19.81z"/><path fill="#EADFD7" d="M359.816 264.266c.432-.062 1.312-.17 1.74-.23.932 2.8 1.812 5.61 2.899 8.36-.67.67-1.34 1.34-1.989 2.02.311-1.229.6-2.47.869-3.7-1.068-.488-2.13-.97-3.189-1.448a487.818 487.818 0 0 1-.33-5.002z"/><path fill="#FDFEFC" d="M381.917 264.416c2.142-2.398 6.601-.85 6.979 2.29.319 2.59.819 6.16-2 7.62-1.971.271-4.619.51-5.541-1.72-1.209-2.47-1.447-6.101.562-8.19z"/><path fill="#0D0506" d="M319.267 268.166c1.439-1.608 3.221-2.64 5.431-2.2-.011 1.82.271 3.98-1.5 5.12-1.57.38-3.181.41-4.771.552.229 3.818.18 7.648.51 11.459.681.85 1.37 1.711 2.061 2.579-1.891 2.562-3.83 5.931-7.54 5.642.66-4.063 2.891-8.631.141-12.4-1.62 2.529-5.88 2.16-7.479-.188-2.29-2.61-1.811-7.21 1.13-9.161 3.477-2.524 8.047-.973 12.017-1.403z"/><path fill="#FCFBF7" d="M308.357 276.045c.421-1.618.15-3.79 2.061-4.479 1.29-.271 2.601-.4 3.931-.4.09 1.95.22 3.91.399 5.88-2.01-.98-4.241-.851-6.391-1.001z"/><path fill="#0D0607" d="M323.198 271.085c.729.271 2.188.802 2.93 1.062.37 2.08.392 4.21.552 6.33 2.25-1.142 4.561-1.551 6.778-.09.229 1.93.431 3.858.58 5.801.608.857 1.229 1.729 1.851 2.607a76.75 76.75 0 0 1-3.479 3.83l-2.87-.561c1.05-2.91 1.858-6.299-.09-9.049-.931.329-1.812.777-2.688 1.219a73.19 73.19 0 0 0 .18 4.201 72.707 72.707 0 0 0 2.229 3.438c-2.38.33-4.779.54-7.18.591-.051-.381-.15-1.149-.2-1.541.62-.948 1.24-1.88 1.83-2.827-.729-3.07-.681-6.24-.689-9.371-3.564-.829-.404-3.709.266-5.64z"/><path fill="#0E0406" d="M339.816 277.166c3.062-.607 7.262-.34 7.979 3.45 1.2 4.319-4.56 3.78-7.26 3.899.142.438.431 1.318.58 1.76 2.312-.049 4.438-1.069 6.72-1.33.771 5.461-8.699 6.291-10.18 1.441-1.807-3.261-.367-6.87 2.161-9.22z"/><path fill="#9E593C" d="M339.217 280.736a78.993 78.993 0 0 1 5.711-1.521c.349 3.531-4.032 3.89-5.711 1.521z"/><path fill="#070306" d="M360.387 286.386c2.09.31 3.979-2.37 5.949-.852 2.682 2.25 4.311 5.84 4.182 9.352-.881.729-1.892 1.25-2.881 1.8-2.521-2.102-5.051-4.3-8.188-5.379-1.222.438-2.45.879-3.66 1.329-.16 1.5-1.83 3.511.2 4.408 5.199 3.012 11.55 3.682 16.311 7.592 2.819 3.771 3.801 8.47 3.35 13.108-3 11.53-19.148 14.66-27.469 7.021-5.201-4.29-5.25-14.16 1.01-17.512 3.279-2.028 8.07-2 10.561 1.25-.46 1.092-.908 2.19-1.359 3.29-2.229.762-4.959.88-6.5 2.88-.771 2.82.371 6.183 3.211 7.342 3.76 1.658 8.858 1.278 11.83-1.75 3.358-3.83 2.351-10.54-2.201-12.989-4.469-2.37-9.68-3.19-13.898-6.07-3.311-2.29-3.88-7.21-1.488-10.357 2.311-3.683 6.901-5.023 11.04-4.463z"/><path fill="#080506" d="M464.978 291.406c2.729-2.438 6.829 0 9.619-2.32.511 0 1.54-.01 2.051-.01 1.358 2.142 2.409 4.47 3.261 6.88-2.9 2.61-5.852-.06-8.41-1.67-.46.062-1.399.159-1.859.22-.011.78-.021 1.57-.011 2.37 3.29 1.5 7.312 1.88 9.92 4.602 1.99 2.12.57 5-.01 7.421-2.63 2.26-5.99 2.88-9.359 2.278-1.21.591-2.489 1.75-3.921 1.142-2.38-2-3.92-4.95-3.818-8.091 3.63-1.909 6.431 1.631 9.659 2.729 2.381.96 1.852-1.989 2.131-3.271-3.392-1.09-6.83-2.102-10.011-3.729-.359-.58-1.08-1.739-1.438-2.318-.044-2.264.406-4.683 2.196-6.233z"/><path fill="#070306" d="M425.347 294.775c2.771-1.64 6.182-3.42 9.352-1.64 6.108 3.438 6.85 12.71 2.909 18.068-1.949 3.07-6.562 3.979-9.471 1.771-1.71-.88-1.851-3.682-.319-4.79a27.35 27.35 0 0 1 4.359-.279c2.33-2.24 2.931-5.36 1.409-8.25-.56-.391-1.68-1.17-2.239-1.561-2.141.021-4.858.55-5.351 3.04-.37 3.34-.12 6.721.011 10.079-.051 1.931 1.92 2.881 2.811 4.392.461 1.567-1.051 2.64-1.841 3.77-1.931 1.852-3.988 4.57-7.021 3.762-1.22-2.75.5-5.609.42-8.42-.181-4.512-.771-8.99-.649-13.5-.971-.472-1.938-.932-2.891-1.392-.09-.561-.271-1.681-.35-2.24 1.959-2.118 4.1-4.5 7.18-4.737.421.478 1.261 1.447 1.681 1.927z"/><path fill="#070406" d="M445.288 293.686c4.101-4.142 12.25-3.352 14.819 2.141 1.011 2.13 1.641 5.82-1.04 6.95-3.319 1.729-7.109 1.22-10.689 1.25.091.51.29 1.55.391 2.06 3.95 2.92 7.642-1.22 11.771-1.08.08 1.25.34 2.521.181 3.79-1.479 2.643-4.699 3.271-7.319 4.21-4.971.07-9.979-3.118-10.761-8.25-1.153-3.833-.113-8.172 2.647-11.071z"/><path fill="#060207" d="M398.048 297.416c2.521-3.83 7.761-4.061 11.75-2.898 4.96 1.83 5.931 7.761 5.779 12.398-.87 2.71-1.99 5.771-4.75 7.102-2.67 1.561-5.83.96-8.761 1.068-6.388-3.15-8.399-12.09-4.018-17.67z"/><path fill="#080307" d="M380.667 297.005c1.851-1.64 4.36-2.038 6.649-2.698 2.109.738 4.529 1.16 6.149 2.83 1.21 1.63.89 4.158-1.011 5.148-2.729-1.101-5.43-2.568-8.471-2.101-1.709 3.03-2.471 7.54.711 9.898 3.398 1.67 6.6-1.76 10.109-1.22.068 1.779.909 4.21-1.052 5.319-2.659 2.54-6.63 2.688-10.028 1.989-7.525-2.724-9.096-14.184-3.056-19.165z"/><path fill="#FCF7F5" d="M449.118 296.416c2.55-.58 6.29-1.198 6.479 2.48-2.688.77-5.471 1.147-8.261 1.289a133.566 133.566 0 0 1 1.782-3.769z"/><path fill="#FBFCFB" d="M403.107 299.276c1.699-.78 3.58-.221 5.351.01 1.312 2.521 2.351 5.439 1.2 8.25-1.04 3.47-6.721 3.55-7.9.09-.41-2.78-1.01-6.251 1.349-8.35z"/><path d="M581.397 328.356c7.069-1.62 12.199-7.15 17.659-11.37 9.899 1.029 19.312 5.71 26.239 12.83 6.062 6.76 10.24 15.619 9.852 24.85.568 12.261-5.909 24.052-15.341 31.58-15.938 13.09-41.141 13.359-56.87-.229-9.311-7.771-14.601-20.271-13.079-32.359.771-7.351 3.869-14.3 8.341-20.141 7.769-1.531 15.46-3.472 23.199-5.161z"/><path fill="#050305" d="M123.568 336.816c2.91 2.909 5.76 5.88 8.72 8.739 2.15 1.841 2.49 4.811 3.479 7.318 14.261 40.32 38.88 76.9 70.891 105.28 28.52 25.399 62.79 44.38 99.59 54.699 41.932 11.87 86.95 12.671 129.25 2.148 59.96-14.51 113.811-52.108 148.562-103.01 2.938-.34 5.891-.66 8.858-.79-35.351 54.271-91.569 94.67-154.51 110.182-15.13 3.948-30.65 6.3-46.229 7.329-21.342 1.421-42.842.149-63.882-3.659-41.439-7.472-80.899-25.41-113.97-51.439-43.82-34.347-76.36-82.957-90.759-136.797z"/><path d="M520.887 340.456c1.271-.148 2.591-.62 3.892-.3 7.771 6.319 13.318 15.439 14.56 25.46 3.091 19.58-10.96 39.17-29.569 44.72-12.561 4.08-26.988 2.4-37.96-5.08-8.601-5.59-14.971-14.579-17.021-24.67-2.391-10.118-.03-21.118 5.62-29.76.688-1.49 2.489-1.3 3.84-1.561 18.949-2.47 37.808-5.569 56.638-8.809zM259.097 372.656c4.101-12.75 14.13-23.87 27.03-27.99 1.77 5.49 6.1 9.9 11.63 11.63 12.159 4.131 25.229 2.472 37.841 2.842 6.198 9.148 9.43 20.67 7.101 31.641-3.28 19.46-21.7 34.779-41.37 34.76-14.311.7-28.66-6.47-36.7-18.33-6.912-9.954-8.791-22.923-5.532-34.553zM367.417 358.286c21.011-.95 42.021-2.46 62.91-5 7.398 7.51 12.148 17.83 11.72 28.49-.108 12.54-7.01 24.489-17.188 31.63-9.579 6.84-22.069 9.54-33.602 7-14.948-2.95-27.68-14.84-31.21-29.74-.93-6.67-1.02-13.59.99-20.08 1.501-4.4 3.88-8.412 6.38-12.3z"/><path fill="#050304" d="M237.118 366.666c1.55-.778 3.12-1.528 4.699-2.29-3.55 8.602-4.55 17.972-4.079 27.19a247.665 247.665 0 0 1-17.12-22.261c5.63.231 11.239-.559 16.5-2.639z"/><path fill="#040204" d="M192.147 399.706c8.11-5.05 15.73-10.88 23.9-15.85 1.93 2.829 3.83 5.68 5.58 8.63-7.37 4.8-14.58 9.819-21.95 14.6-3.479 2.12-7.33 4.33-11.57 3.813-7.529-.25-13.55-8.011-12.39-15.353.83-4.51 4.04-8.47 8.22-10.34 1.62 2.57 3.49 4.97 5.051 7.58-1.46 2.149-4.521 4.12-3.181 7.102 1.611 2.278 4.441.898 6.34-.182z"/><path fill="#030204" d="M214.778 408.217c3.18-2.972 6.8-6.541 11.55-6 7.229.979 13.13 7.351 14.27 14.459.37 4.352-2.3 8.189-5.55 10.801-7.19 6.381-13.84 13.37-21.28 19.471-1.859-1.9-3.739-3.771-5.59-5.67 3.42-4.561 8.04-8.09 12.26-11.88-2.08-2.563-4.29-5-6.54-7.393-4.5 3.421-8.319 7.632-12.619 11.28-1.95-1.74-3.79-3.59-5.62-5.45-.04-.358-.12-1.1-.17-1.47 6.278-6.209 13.018-11.941 19.289-18.148z"/><path d="M388.188 436.424c22.858 2.94 46.841-9.67 57.061-30.397 6.55 8.859 16 15.438 26.5 18.739-.029.21-.109.641-.149.851-35.311 21.76-78.011 31.28-119.181 26.01-15.59-1.96-31-5.818-45.529-11.84 16.88-3.37 31.71-14.92 39.541-30.2 8.647 14.88 24.647 25.109 41.757 26.837z"/><path fill="#FDFCFB" d="M224.158 411.996c3.81-.25 8.199 3.312 6.67 7.38-1.34 1.592-2.99 2.892-4.561 4.25-2.33-2.25-4.59-4.568-6.72-7.01a692.83 692.83 0 0 1 4.611-4.62z"/><path fill="#040204" d="M250.248 420.656c2.359 1.562 4.6 3.3 6.88 4.99-3 7.01-5.84 14.1-9.09 21-.11.647-.351 1.938-.471 2.579 6.381-5.569 13.07-10.761 19.61-16.142 2.16 1.79 4.39 3.49 6.67 5.131-11.359 9.591-23.06 18.779-34.51 28.279a302.08 302.08 0 0 0-6.54-4.82c5.72-13.717 11.71-27.307 17.451-41.017z"/><path fill="#040206" d="M458.978 449.967c7.979-4.462 15.729-9.312 23.521-14.08 1.609 2.5 3.149 5.051 4.53 7.698-2.53 1.54-5.182 2.881-7.591 4.603.221 1.31.931 2.449 1.601 3.59 5.061 8.41 10.279 16.739 15.17 25.27.229.16.7.48.931.643a133.765 133.765 0 0 0-7.479 4.688c-6.689-9.398-11.88-19.778-18.229-29.408-2.71 1.578-5.359 3.26-8.159 4.681-1.436-2.576-2.886-5.126-4.295-7.685z"/><path fill="#040205" d="M279.857 445.516c8.08-2.38 17.99 2.738 20 11.101.811 4.42-1.869 8.3-3.72 12.069-3.791 7.688-7.82 15.238-11.72 22.87-2.62-1.149-5.15-2.479-7.65-3.852 2.511-5.101 5.12-10.14 7.66-15.22-2.96-1.5-5.8-3.312-8.979-4.32-2.351 4.939-5.11 9.682-7.381 14.67-2.729-.76-5.25-2.068-7.789-3.27.189-2.301 1.21-4.381 2.289-6.37 3.461-6.87 7.131-13.63 10.5-20.55 1.37-3.059 3.431-6.078 6.79-7.128z"/><path fill="#FDFCFB" d="M282.097 455.217c.57-.222 1.69-.649 2.25-.87 2.67.561 6.59 1.75 6.54 5.108-.649 2.13-1.85 4.04-2.89 6-2.96-1.45-5.92-2.898-8.811-4.488a150.209 150.209 0 0 1 2.911-5.75z"/><path fill="#030103" d="M428.337 460.846c7.062-1.949 14.062-7.552 21.631-4.739 7.279 2.09 11.42 11.26 7.949 18.05-2.199 4.43-6.59 7.109-11.109 8.689 1.881 5 3.939 9.938 5.62 15.021-2.438 1.069-4.92 2.021-7.33 3.13-.601.021-1.199.04-1.79.07-4-10.19-7.811-20.45-11.76-30.66-1.211-3.141-2.731-6.201-3.211-9.561z"/><path fill="#050306" d="M313.017 458.456c4.75-1.41 10.029-.398 14.141 2.3 4.42 3.45 5.279 9.79 3.68 14.9-2.609-.67-5.199-1.4-7.739-2.261-.271-2.142.189-5.159-2.17-6.29-1.431-1.039-3.24-.72-4.87-.829-.5 1.21-.99 2.438-1.471 3.67 4.49 3.989 10.58 6.72 12.87 12.71 2.54 7.71-2.979 16.739-10.93 18.26-1.171-.028-2.32-.04-3.471-.04-4.109-1.028-8.71-2.479-10.931-6.42-2.369-3.818-1.67-8.529-1.04-12.738 2.931.63 5.87 1.289 8.69 2.351.199 2.83-.131 5.899 2 8.14 1.039 0 3.109.012 4.14.012 1.351-1.882 3.021-4 2.7-6.45-3.17-4.3-8.87-6-11.58-10.722-2.449-5.875-.048-13.913 5.981-16.593z"/><path fill="#040105" d="M412.007 463.576c3.171-.67 6.341-1.358 9.55-1.811 2.909 14.061 5.37 28.21 8.352 42.261-2.609.62-5.229 1.18-7.88 1.6-.32.2-.972.602-1.29.813-1.301-3.521-1.78-7.25-2.54-10.893-2.062-10.66-4.172-21.3-6.192-31.97z"/><path fill="#FDFDFB" d="M440.438 466.467c2.591-1.069 5.341-1.842 8.17-1.24 1.108 1.99 1.949 4.341.938 6.568-1.688 1.65-4.039 2.302-6.26 2.893-.969-2.742-2.008-5.452-2.848-8.221z"/><path fill="#030102" d="M342.547 471.186c4.641-7.25 16.4-8.25 22.311-1.979 1.802 1.74 2.632 4.16 3.649 6.392-.01 2.271-.02 4.551-.06 6.84-2.971.108-5.94-.17-8.891-.47-.029-1.53-.069-3.062-.062-4.569-1.95-2.12-4.95-3.353-7.71-2.08-2.45 1.739-2.021 5.029-2.58 7.63-.43 4.25-1.471 8.439-1.43 12.75.369.55 1.13 1.649 1.5 2.2 2.279 1.34 4.818 1.04 7.13-.07.64-1.521 1.278-3.03 1.909-4.54 2.931.32 5.851.78 8.789 1.102-.01 4.391-1.479 9.358-5.608 11.568-6.431 3.479-15.688 2.94-20.33-3.25-3.739-4.108-2.84-10.04-1.899-15.029 1.192-5.475 1.131-11.285 3.282-16.495z"/><path fill="#020103" d="M375.428 467.096a121.572 121.572 0 0 1 16.948-1.189c2.892-.101 5.5 1.279 7.99 2.6 4.09 5.012 4.84 12.393 1.75 18.092-1 1.988-2.82 3.408-3.87 5.358 2.37 5.562 5.99 10.512 8.75 15.91-3.21.05-6.398.352-9.59.561-3.58-5.369-6.432-11.209-10.4-16.301.051 5.722 1.04 11.38 1.16 17.11-3.029.26-6.04.68-9.08.779-.38-3.062-.479-6.149-.84-9.21-.602-7.341-1.271-14.682-1.932-22.021-.446-3.889-.626-7.789-.886-11.689z"/><path fill="#FEFDFB" d="M385.607 474.906c3.101-.938 6.279-.391 8.949 1.399.359 1.198.739 2.42 1.121 3.63-.762 1.431-1.352 3.148-2.871 3.971-2.039.6-4.141.939-6.24 1.279-.689-3.39-.929-6.829-.959-10.279z"/></svg>