<svg width="19" height="19" viewBox="0 0 19 19" fill="none" xmlns="http://www.w3.org/2000/svg">
<path d="M8.7398 13.6798C6.0038 13.6798 3.7998 11.4758 3.7998 8.7398C3.7998 6.0038 6.0038 3.7998 8.7398 3.7998C11.4758 3.7998 13.6798 6.0038 13.6798 8.7398C13.6798 11.4758 11.4758 13.6798 8.7398 13.6798ZM8.7398 4.5598C6.4218 4.5598 4.5598 6.4218 4.5598 8.7398C4.5598 11.0578 6.4218 12.9198 8.7398 12.9198C11.0578 12.9198 12.9198 11.0578 12.9198 8.7398C12.9198 6.4218 11.0578 4.5598 8.7398 4.5598Z" fill="#DADADA"/>
<path d="M12.4192 11.8818L15.8316 15.2942L15.2942 15.8316L11.8818 12.4192L12.4192 11.8818Z" fill="#DADADA"/>
</svg>
