<svg xmlns="http://www.w3.org/2000/svg" width="24" height="24" viewBox="0 0 512 512"><g><path fill="#CECECE" d="M403.777 147.918C403.777 66.355 337.418 0 255.86 0c-81.562 0-147.918 66.355-147.918 147.918 0 50.52 25.465 95.2 64.223 121.894-36.187 12.489-69.36 33.118-97.226 60.985C26.613 379.12 0 443.375 0 511.715h39.977c0-119.035 96.843-215.88 215.882-215.88 81.559 0 147.918-66.355 147.918-147.917zM255.86 255.859c-59.52 0-107.941-48.422-107.941-107.941S196.34 39.977 255.859 39.977c59.516 0 107.938 48.421 107.938 107.941s-48.422 107.941-107.938 107.941zM512 367.797l-94.09 94.09-28.27-28.27 46.833-46.832H401.8c-47.899 0-86.903 38.973-86.942 86.871l-.035 38.074-39.976-.03.03-38.079c.06-69.926 56.997-126.816 126.923-126.816h32.672l-44.832-44.832 28.27-28.266zm0 0"></path></g></svg>