<svg width="24" height="24" viewBox="0 0 24 24" fill="none" xmlns="http://www.w3.org/2000/svg">
<path d="M11.7295 14.583C18.1151 14.583 23.292 16.9988 23.292 19.9788V23.833H0.166992V19.9788C0.166992 16.9988 5.34391 14.583 11.7295 14.583ZM21.7503 19.9788C21.7503 17.8513 17.2641 16.1247 11.7295 16.1247C6.19491 16.1247 1.70866 17.8513 1.70866 19.9788V22.2913H21.7503V19.9788ZM11.7295 0.708008C13.1606 0.708008 14.533 1.2765 15.5449 2.28841C16.5568 3.30033 17.1253 4.67278 17.1253 6.10384C17.1253 7.5349 16.5568 8.90736 15.5449 9.91927C14.533 10.9312 13.1606 11.4997 11.7295 11.4997C10.2984 11.4997 8.92598 10.9312 7.91406 9.91927C6.90215 8.90736 6.33366 7.5349 6.33366 6.10384C6.33366 4.67278 6.90215 3.30033 7.91406 2.28841C8.92598 1.2765 10.2984 0.708008 11.7295 0.708008ZM11.7295 2.24967C10.7073 2.24967 9.72698 2.65574 9.00418 3.37853C8.28139 4.10133 7.87533 5.08165 7.87533 6.10384C7.87533 7.12603 8.28139 8.10635 9.00418 8.82915C9.72698 9.55194 10.7073 9.95801 11.7295 9.95801C12.7517 9.95801 13.732 9.55194 14.4548 8.82915C15.1776 8.10635 15.5837 7.12603 15.5837 6.10384C15.5837 5.08165 15.1776 4.10133 14.4548 3.37853C13.732 2.65574 12.7517 2.24967 11.7295 2.24967Z" fill="#CECECE"/>
</svg>
