<?xml version="1.0" encoding="utf-8"?><!-- Uploaded to: SVG Repo, www.svgrepo.com, Generator: SVG Repo Mixer Tools -->
<svg width="800px" height="800px" viewBox="0 0 24 24" fill="none" xmlns="http://www.w3.org/2000/svg">
<path d="M7.99999 5C7.69206 5 7.4013 5.14187 7.21179 5.38459C7.02228 5.6273 6.95517 5.94379 7.02985 6.24254L8.02985 10.2425C8.14114 10.6877 8.54113 11 8.99999 11H13.8C13.9105 11 14 11.0895 14 11.2V13.5029C14 13.556 13.9789 13.6069 13.9414 13.6444L12.1414 15.4444C12.0633 15.5225 11.9367 15.5225 11.8586 15.4444L9.7071 13.2929C9.31658 12.9024 8.68341 12.9024 8.29289 13.2929C7.90236 13.6834 7.90236 14.3166 8.29289 14.7071L11.2929 17.7071C11.6834 18.0976 12.3166 18.0976 12.7071 17.7071L15.7071 14.7071C15.8946 14.5196 16 14.2652 16 14V10C16 9.44772 15.5523 9 15 9H9.93693C9.84515 9 9.76516 8.93754 9.7429 8.84851L9.3429 7.24851C9.31134 7.12228 9.40681 7 9.53693 7H16C16.5523 7 17 6.55228 17 6C17 5.44772 16.5523 5 16 5H7.99999Z" fill="#0F0F0F"/>
<path fill-rule="evenodd" clip-rule="evenodd" d="M4.30601 1C2.48037 1 1.07798 2.61696 1.33617 4.42426L2.90518 15.4074C3.00667 16.1178 3.35945 16.7683 3.89952 17.2409L10.0245 22.6002C11.1556 23.5899 12.8444 23.5899 13.9755 22.6002L20.1005 17.2409C20.6405 16.7683 20.9933 16.1178 21.0948 15.4074L22.6638 4.42426C22.922 2.61696 21.5196 1 19.694 1H4.30601ZM3.31606 4.14142C3.23 3.53899 3.69746 3 4.30601 3H19.694C20.3025 3 20.77 3.53899 20.6839 4.14142L19.1149 15.1245C19.0811 15.3613 18.9635 15.5782 18.7835 15.7357L12.6585 21.095C12.2815 21.4249 11.7185 21.4249 11.3415 21.095L5.21653 15.7357C5.0365 15.5782 4.91891 15.3613 4.88508 15.1245L3.31606 4.14142Z" fill="#0F0F0F"/>
</svg>